# xmcd
#
# Track frame offsets:
#	150
#	10300
#	23637
#	42455
#	55652
#	66005
#	78315
#	89730
#	103390
#	114242
#	129635
#	137950
#
# Disc length: 2024 seconds
# Revision: 3
# Processed by: cddbd v1.5.2PL0 Copyright (c) Steve Scherf et al.
# Submitted via: dBpowerAMP V12.0
#
DISCID=a307e60c
DTITLE=Various Artist - Songs of the Stanley Brothers
DYEAR=1997
DGENRE=Bluegrass
TTITLE0=Jim and Jesse - Long Journey Home
TTITLE1=Ricky Skaggs - Say, Won't You Be Mine
TTITLE2=Tony Furtado - Man of Constant Sorrow
TTITLE3=Dry Branch Fire Squad - The Girl Behind the Bar
TTITLE4=The Nashville Bluegrass Band - If I Lose
TTITLE5=The Johnson Mountain Boys - Harbor of Love
TTITLE6=Alan Munde - Clinch Mountain Backstep
TTITLE7=Joe Val and The New England Bluegrass Boys - Vision of Mother
TTITLE8=Hazel Dickens - Dream of a Miner's Child
TTITLE9=Jim and Jesse - The White Dove
TTITLE10=Vern Williams - You'd Better Get Right
TTITLE11=Hot Rize - Rank Strangers To Me
EXTD=
EXTT0=
EXTT1=
EXTT2=
EXTT3=
EXTT4=
EXTT5=
EXTT6=
EXTT7=
EXTT8=
EXTT9=
EXTT10=
EXTT11=
PLAYORDER=
